<svg width="27" height="26" viewBox="0 0 27 26" fill="none" xmlns="http://www.w3.org/2000/svg">
<path fill-rule="evenodd" clip-rule="evenodd" d="M13.5 4.07189C14.6525 1.66256 17.0839 0 19.8947 0C23.8168 0 27 3.23556 27 7.22222C27 11.4371 24.8912 15.3024 22.3318 18.4094C18.5717 22.9753 13.8709 25.8946 13.8709 25.8946C13.6435 26.0347 13.3565 26.0347 13.1291 25.8946C13.1291 25.8946 8.42826 22.9753 4.66816 18.4094C2.10884 15.3024 0 11.4371 0 7.22222C0 3.23556 3.18316 0 7.10526 0C9.91611 0 12.3475 1.66256 13.5 4.07189ZM25.5789 7.22222C25.5789 4.03289 23.0324 1.44444 19.8947 1.44444C16.7571 1.44444 14.2105 4.03289 14.2105 7.22222V7.24967C14.1949 7.63533 13.8823 7.94445 13.5 7.94445C13.1106 7.94445 12.7952 7.62667 12.7895 7.23233V7.22222C12.7895 4.03289 10.2429 1.44444 7.10526 1.44444C3.96758 1.44444 1.42105 4.03289 1.42105 7.22222C1.42105 11.0962 3.40484 14.6264 5.75668 17.4821C8.74516 21.1091 12.3504 23.6542 13.5 24.4198C14.6496 23.6542 18.2548 21.1091 21.2433 17.4821C23.5952 14.6264 25.5789 11.0962 25.5789 7.22222Z" fill="white"/>
</svg>
