<svg width="28" height="28" viewBox="0 0 28 28" fill="none" xmlns="http://www.w3.org/2000/svg">
<path id="Vector" d="M28 14.0089C28.003 11.6947 27.4316 9.41592 26.3368 7.37665C25.2421 5.33738 23.6582 3.60133 21.7271 2.32404C19.796 1.04675 17.5781 0.268102 15.2719 0.0578593C12.9657 -0.152384 10.6434 0.212342 8.51288 1.11936C6.3824 2.02638 4.51035 3.44737 3.06441 5.25502C1.61848 7.06267 0.643835 9.20053 0.227792 11.4771C-0.188251 13.7536 -0.0326962 16.0977 0.680517 18.2995C1.39373 20.5012 2.64233 22.4917 4.31445 24.0927C4.36032 24.1511 4.41428 24.2026 4.47471 24.2458C7.05743 26.6552 10.458 27.9967 13.9912 28C17.5244 28.0033 20.9275 26.668 23.5147 24.2634C23.5744 24.2207 23.6277 24.1697 23.6732 24.1121C25.0414 22.8086 26.1304 21.241 26.8742 19.5043C27.618 17.7676 28.001 15.898 28 14.0089ZM1.5849 14.0089C1.58312 11.996 2.07149 10.0128 3.00788 8.23052C3.94428 6.44827 5.30055 4.92047 6.95969 3.77896C8.61882 2.63745 10.531 1.91651 12.5312 1.67836C14.5314 1.44021 16.5595 1.69199 18.4406 2.41198C20.3216 3.13198 21.9991 4.29855 23.3284 5.81105C24.6576 7.32355 25.5985 9.13654 26.0701 11.0936C26.5416 13.0506 26.5296 15.0929 26.035 17.0443C25.5404 18.9956 24.5781 20.7974 23.2312 22.2942C21.8727 20.0954 19.778 18.4492 17.3195 17.6482C18.0846 17.1136 18.7095 16.4027 19.1414 15.5756C19.5733 14.7485 19.7995 13.8296 19.8007 12.8967V10.609C19.8007 9.06873 19.1885 7.59159 18.0986 6.50249C17.0088 5.41339 15.5307 4.80154 13.9894 4.80154C12.4482 4.80154 10.97 5.41339 9.8802 6.50249C8.79036 7.59159 8.1781 9.06873 8.1781 10.609V12.8967C8.17956 13.8298 8.40599 14.7488 8.83821 15.5759C9.27043 16.403 9.89571 17.1138 10.6611 17.6482C8.20624 18.4466 6.1133 20.0874 4.75295 22.2801C2.71047 20.009 1.58189 17.0625 1.5849 14.0089ZM13.9859 17.1168H13.9472C12.8324 17.1075 11.7664 16.6584 10.9814 15.8673C10.1964 15.0763 9.75592 14.0073 9.75596 12.8932V10.6054C9.75596 10.0508 9.86528 9.50157 10.0777 8.98914C10.2901 8.47671 10.6014 8.01111 10.9939 7.61891C11.3863 7.22672 11.8522 6.91561 12.365 6.70336C12.8778 6.4911 13.4274 6.38186 13.9824 6.38186C14.5374 6.38186 15.087 6.4911 15.5998 6.70336C16.1125 6.91561 16.5784 7.22672 16.9709 7.61891C17.3634 8.01111 17.6747 8.47671 17.8871 8.98914C18.0995 9.50157 18.2088 10.0508 18.2088 10.6054V12.8932C18.2088 14.0073 17.7684 15.0763 16.9834 15.8673C16.1984 16.6584 15.1324 17.1075 14.0176 17.1168H13.9859ZM5.91873 23.4169C6.72515 21.9965 7.89137 20.813 9.30028 19.9855C10.7092 19.1579 12.3112 18.7154 13.9454 18.7024H14.0246C15.662 18.7151 17.267 19.1591 18.6778 19.9897C20.0886 20.8202 21.2552 22.0078 22.0601 23.4328C19.8127 25.3603 16.9481 26.4187 13.9865 26.4158C11.0248 26.4129 8.16238 25.3489 5.91873 23.4169Z" fill="white"/>
</svg>
