<svg width="26" height="26" viewBox="0 0 26 26" fill="none" xmlns="http://www.w3.org/2000/svg">
<path id="Vector" fill-rule="evenodd" clip-rule="evenodd" d="M17.4558 17.4545C15.704 19.2063 13.3737 20.1715 10.8956 20.1715C8.4175 20.1715 6.08888 19.2063 4.33713 17.4545C0.719875 13.8373 0.719875 7.95316 4.33713 4.33591C6.14575 2.52728 8.51987 1.62378 10.8956 1.62378C13.2714 1.62378 15.6471 2.52891 17.4558 4.33591C21.073 7.95316 21.073 13.8373 17.4558 17.4545ZM25.584 24.4339L19.1506 18.0005C22.8361 13.7219 22.6606 7.24466 18.6046 3.18703C14.3553 -1.06234 7.43762 -1.06234 3.18825 3.18703C-1.06275 7.43803 -1.06275 14.354 3.18825 18.6034C5.24712 20.6623 7.98362 21.7965 10.8956 21.7965C13.5346 21.7965 16.0257 20.8573 18.0017 19.1494L24.4351 25.5828C24.5944 25.742 24.8024 25.82 25.0088 25.82C25.2168 25.82 25.4248 25.742 25.584 25.5828C25.9009 25.2659 25.9009 24.7508 25.584 24.4339Z" fill="white"/>
</svg>
