<svg width="28" height="26" viewBox="0 0 28 26" fill="none" xmlns="http://www.w3.org/2000/svg">
<path fill-rule="evenodd" clip-rule="evenodd" d="M8.417 21.4118C7.14986 21.4118 6.12146 22.4395 6.12146 23.7059C6.12146 24.9722 7.14986 26 8.417 26C9.68415 26 10.7126 24.9722 10.7126 23.7059C10.7126 22.4395 9.68415 21.4118 8.417 21.4118ZM23.7206 21.4118C22.4535 21.4118 21.4251 22.4395 21.4251 23.7059C21.4251 24.9722 22.4535 26 23.7206 26C24.9878 26 26.0162 24.9722 26.0162 23.7059C26.0162 22.4395 24.9878 21.4118 23.7206 21.4118ZM8.417 22.9412C8.83939 22.9412 9.18219 23.2838 9.18219 23.7059C9.18219 24.128 8.83939 24.4706 8.417 24.4706C7.99462 24.4706 7.65182 24.128 7.65182 23.7059C7.65182 23.2838 7.99462 22.9412 8.417 22.9412ZM23.7206 22.9412C24.143 22.9412 24.4858 23.2838 24.4858 23.7059C24.4858 24.128 24.143 24.4706 23.7206 24.4706C23.2983 24.4706 22.9555 24.128 22.9555 23.7059C22.9555 23.2838 23.2983 22.9412 23.7206 22.9412ZM9.4852 16.8235L9.67803 17.7442C9.75148 18.0991 10.0637 18.3529 10.4264 18.3529H20.6599C21.0823 18.3529 21.4251 18.6955 21.4251 19.1176C21.4251 19.5398 21.0823 19.8824 20.6599 19.8824H10.4264C9.33981 19.8824 8.4017 19.1207 8.1798 18.0562C7.48501 14.7221 5.55522 5.47224 4.86044 2.13812C4.78698 1.78329 4.47479 1.52941 4.11209 1.52941H0.765182C0.342802 1.52941 0 1.18682 0 0.764706C0 0.342588 0.342802 0 0.765182 0H4.11209C5.19865 0 6.13676 0.761647 6.35866 1.82612L9.16688 15.2941H22.6999C23.0748 15.2941 23.3932 15.0234 23.4559 14.6548C23.7467 12.9052 24.267 9.78365 24.5593 8.034C24.7445 6.92824 25.7009 6.11765 26.8242 6.11765C27.2466 6.11765 27.5894 6.46024 27.5894 6.88235C27.5894 7.30447 27.2466 7.64706 26.8242 7.64706C26.4493 7.64706 26.131 7.91777 26.0682 8.28635C25.7775 10.036 25.2571 13.1575 24.9648 14.9072C24.7797 16.0129 23.8232 16.8235 22.6999 16.8235H9.4852Z" fill="white"/>
</svg>
